# Blender 4.1.1
# www.blender.org
mtllib camera.mtl
o Cube
v 0.300000 0.300000 -0.300000
v 0.300000 -0.300000 -0.300000
v 0.300746 0.300738 0.300746
v 0.299342 -0.299350 0.299342
v -0.300000 0.300000 -0.300000
v -0.300000 -0.300000 -0.300000
v -0.300000 0.300000 0.300000
v -0.300000 -0.300000 0.300000
v 0.291507 0.274086 0.300673
v 0.243884 0.227627 -0.300000
v 0.243885 0.227403 -0.300000
v 0.291510 0.272357 0.300669
v 0.228089 0.227309 -0.300000
v 0.230081 0.227321 -0.300000
v 0.291267 0.272356 0.300668
v 0.275712 0.272261 0.300649
v 0.275714 0.274017 0.300653
v 0.228091 0.229065 -0.300000
v 0.228090 0.228844 -0.300000
v 0.275712 0.272291 0.300649
v 0.241867 0.229146 -0.300000
v 0.243882 0.229158 -0.300000
v 0.291507 0.274112 0.300673
v 0.275981 0.274019 0.300653
vn -0.0006 1.0000 -0.0006
vn -1.0000 -0.0000 -0.0000
vn 0.0005 -1.0000 0.0005
vn 1.0000 -0.0012 -0.0001
vn -0.9969 -0.0014 0.0791
vn -0.0060 0.9972 -0.0742
vn 0.9969 -0.0009 -0.0790
vn 0.0059 -0.9972 0.0742
vn -0.0012 -0.0023 1.0000
vn -0.0001 -0.0012 1.0000
vn -0.0000 -0.0000 -1.0000
vt 0.625000 0.500000
vt 0.875000 0.500000
vt 0.875000 0.750000
vt 0.625000 0.750000
vt 0.375000 0.000000
vt 0.625000 0.000000
vt 0.625000 0.250000
vt 0.375000 0.250000
vt 0.125000 0.500000
vt 0.375000 0.500000
vt 0.375000 0.750000
vt 0.125000 0.750000
vt 0.000000 0.000000
vt 0.613181 0.753819
vt 0.613912 0.753821
vt 0.613901 0.753821
vt 0.625000 1.000000
vt 0.375000 1.000000
vt 0.613180 0.753920
vt 0.613149 0.760395
vt 0.613162 0.760395
vt 0.613881 0.760396
vt 0.613881 0.760284
vt 0.595483 0.476618
vt 0.594751 0.476618
vt 0.594845 0.476618
vt 0.595478 0.475778
vt 0.595444 0.470038
vt 0.595351 0.470038
vt 0.594712 0.470037
vt 0.594717 0.470867
s 0
usemtl Material
f 1/1/1 5/2/1 7/3/1 3/4/1
f 8/5/2 7/6/2 5/7/2 6/8/2
f 6/9/3 2/10/3 4/11/3 8/12/3
f 2/10/4 1/1/4 3/4/4 4/11/4
f 12/13/5 9/13/5 10/13/5 11/13/5
f 16/13/6 15/13/6 14/13/6 13/13/6
f 20/13/7 19/13/7 18/13/7 17/13/7
f 22/13/8 23/13/8 24/13/8 21/13/8
f 10/13/5 9/13/5 23/13/5 22/13/5
f 11/13/6 14/13/6 15/13/6 12/13/6
f 20/13/7 16/13/7 13/13/7 19/13/7
f 21/13/8 24/13/8 17/13/8 18/13/8
f 12/14/9 4/11/9 3/4/9 23/15/9 9/16/9
f 23/15/10 3/4/10 7/17/10 8/18/10 4/11/10 12/14/10 15/19/10 16/20/10 20/21/10 17/22/10 24/23/10
f 22/24/11 1/1/11 2/10/11 11/25/11 10/26/11
f 2/10/11 6/8/11 5/7/11 1/1/11 22/24/11 21/27/11 18/28/11 19/29/11 13/30/11 14/31/11 11/25/11
o Cone
v 0.300000 0.300000 0.000000
v 0.300000 0.294236 -0.058527
v 0.300000 0.277164 -0.114805
v 0.300000 0.249441 -0.166671
v 0.300000 0.212132 -0.212132
v 0.300000 0.166671 -0.249441
v 0.300000 0.114805 -0.277164
v 0.300000 0.058527 -0.294236
v 0.300000 0.000000 -0.300000
v 0.300000 -0.058527 -0.294236
v 0.300000 -0.114805 -0.277164
v 0.300000 -0.166671 -0.249441
v 0.300000 -0.212132 -0.212132
v 0.300000 -0.249441 -0.166671
v 0.300000 -0.277164 -0.114805
v 0.300000 -0.294236 -0.058527
v 0.300000 -0.300000 0.000000
v 0.300000 -0.294236 0.058527
v 0.300000 -0.277164 0.114805
v 0.300000 -0.249441 0.166671
v 0.300000 -0.212132 0.212132
v 0.300000 -0.166671 0.249441
v 0.300000 -0.114805 0.277164
v 0.300000 -0.058527 0.294236
v 0.300000 0.000000 0.300000
v 0.300000 0.058527 0.294236
v 0.300000 0.114805 0.277164
v 0.300000 0.166671 0.249441
v 0.300000 0.212132 0.212132
v 0.300000 0.249441 0.166671
v 0.300000 0.277164 0.114805
v 0.300000 0.294236 0.058527
v 0.900000 -0.000000 -0.000000
vn 0.4455 0.8910 -0.0878
vn 0.4455 0.8567 -0.2599
vn 0.4455 0.7896 -0.4220
vn 0.4455 0.6921 -0.5680
vn 0.4455 0.5680 -0.6921
vn 0.4455 0.4220 -0.7896
vn 0.4455 0.2599 -0.8567
vn 0.4455 0.0878 -0.8910
vn 0.4455 -0.0878 -0.8910
vn 0.4455 -0.2599 -0.8567
vn 0.4455 -0.4220 -0.7896
vn 0.4455 -0.5680 -0.6921
vn 0.4455 -0.6921 -0.5680
vn 0.4455 -0.7896 -0.4220
vn 0.4455 -0.8567 -0.2599
vn 0.4455 -0.8910 -0.0878
vn 0.4455 -0.8910 0.0878
vn 0.4455 -0.8567 0.2599
vn 0.4455 -0.7896 0.4220
vn 0.4455 -0.6921 0.5680
vn 0.4455 -0.5680 0.6921
vn 0.4455 -0.4220 0.7896
vn 0.4455 -0.2599 0.8567
vn 0.4455 -0.0878 0.8910
vn 0.4455 0.0878 0.8910
vn 0.4455 0.2599 0.8567
vn 0.4455 0.4220 0.7896
vn 0.4455 0.5680 0.6921
vn 0.4455 0.6921 0.5680
vn 0.4455 0.7896 0.4220
vn -1.0000 -0.0000 -0.0000
vn 0.4455 0.8567 0.2599
vn 0.4455 0.8910 0.0878
vt 0.250000 0.490000
vt 0.250000 0.250000
vt 0.296822 0.485388
vt 0.341844 0.471731
vt 0.383337 0.449553
vt 0.419706 0.419706
vt 0.449553 0.383337
vt 0.471731 0.341844
vt 0.485388 0.296822
vt 0.490000 0.250000
vt 0.485388 0.203178
vt 0.471731 0.158156
vt 0.449553 0.116663
vt 0.419706 0.080294
vt 0.383337 0.050447
vt 0.341844 0.028269
vt 0.296822 0.014612
vt 0.250000 0.010000
vt 0.203178 0.014612
vt 0.158156 0.028269
vt 0.116663 0.050447
vt 0.080294 0.080294
vt 0.050447 0.116663
vt 0.028269 0.158156
vt 0.014612 0.203178
vt 0.010000 0.250000
vt 0.014612 0.296822
vt 0.028269 0.341844
vt 0.050447 0.383337
vt 0.080294 0.419706
vt 0.116663 0.449553
vt 0.158156 0.471731
vt 0.750000 0.490000
vt 0.796822 0.485388
vt 0.841844 0.471731
vt 0.883337 0.449553
vt 0.919706 0.419706
vt 0.949553 0.383337
vt 0.971731 0.341844
vt 0.985388 0.296822
vt 0.990000 0.250000
vt 0.985388 0.203178
vt 0.971731 0.158156
vt 0.949553 0.116663
vt 0.919706 0.080294
vt 0.883337 0.050447
vt 0.841844 0.028269
vt 0.796822 0.014612
vt 0.750000 0.010000
vt 0.703178 0.014612
vt 0.658156 0.028269
vt 0.616663 0.050447
vt 0.580294 0.080294
vt 0.550447 0.116663
vt 0.528269 0.158156
vt 0.514612 0.203178
vt 0.510000 0.250000
vt 0.514612 0.296822
vt 0.528269 0.341844
vt 0.550447 0.383337
vt 0.580294 0.419706
vt 0.616663 0.449553
vt 0.658156 0.471731
vt 0.703178 0.485388
vt 0.203178 0.485388
s 0
f 25/32/12 57/33/12 26/34/12
f 26/34/13 57/33/13 27/35/13
f 27/35/14 57/33/14 28/36/14
f 28/36/15 57/33/15 29/37/15
f 29/37/16 57/33/16 30/38/16
f 30/38/17 57/33/17 31/39/17
f 31/39/18 57/33/18 32/40/18
f 32/40/19 57/33/19 33/41/19
f 33/41/20 57/33/20 34/42/20
f 34/42/21 57/33/21 35/43/21
f 35/43/22 57/33/22 36/44/22
f 36/44/23 57/33/23 37/45/23
f 37/45/24 57/33/24 38/46/24
f 38/46/25 57/33/25 39/47/25
f 39/47/26 57/33/26 40/48/26
f 40/48/27 57/33/27 41/49/27
f 41/49/28 57/33/28 42/50/28
f 42/50/29 57/33/29 43/51/29
f 43/51/30 57/33/30 44/52/30
f 44/52/31 57/33/31 45/53/31
f 45/53/32 57/33/32 46/54/32
f 46/54/33 57/33/33 47/55/33
f 47/55/34 57/33/34 48/56/34
f 48/56/35 57/33/35 49/57/35
f 49/57/36 57/33/36 50/58/36
f 50/58/37 57/33/37 51/59/37
f 51/59/38 57/33/38 52/60/38
f 52/60/39 57/33/39 53/61/39
f 53/61/40 57/33/40 54/62/40
f 54/62/41 57/33/41 55/63/41
f 25/64/42 26/65/42 27/66/42 28/67/42 29/68/42 30/69/42 31/70/42 32/71/42 33/72/42 34/73/42 35/74/42 36/75/42 37/76/42 38/77/42 39/78/42 40/79/42 41/80/42 42/81/42 43/82/42 44/83/42 45/84/42 46/85/42 47/86/42 48/87/42 49/88/42 50/89/42 51/90/42 52/91/42 53/92/42 54/93/42 55/94/42 56/95/42
f 55/63/43 57/33/43 56/96/43
f 56/96/44 57/33/44 25/32/44
